<?xml version="1.0" encoding="iso-8859-1"?>
<!-- Generator: Adobe Illustrator 19.0.0, SVG Export Plug-In . SVG Version: 6.00 Build 0)  -->
<svg xmlns="http://www.w3.org/2000/svg" xmlns:xlink="http://www.w3.org/1999/xlink" version="1.1" id="Layer_1" x="0px" y="0px" viewBox="0 0 302.407 302.407" style="enable-background:new 0 0 302.407 302.407;" xml:space="preserve" width="512px" height="512px">
<g>
	<g>
		<path d="M288.244,186.169c-7.196-7.195-17.376-9.791-26.728-7.769c8.316-16.588,13.006-35.295,13.006-55.079    C274.522,55.321,219.201,0,151.201,0S27.881,55.321,27.881,123.32c0,26.492,8.398,51.058,22.67,71.179    c-11.905,1.762-22.933,7.636-31.038,16.732c-8.929,10.021-13.847,22.933-13.847,36.355v28.805c0,4.49,3.31,8.293,7.757,8.914    l112.091,15.634c7.03,0.98,14.062,1.468,21.059,1.468c24.172,0,47.918-5.812,69.655-17.162    c7.192-3.755,14.166-8.147,20.728-13.055c14.189-10.611,27.83-22.246,40.544-34.579l10.432-10.12    c5.62-5.452,8.748-12.766,8.808-20.596C296.8,199.065,293.781,191.706,288.244,186.169z M45.881,123.321    C45.881,65.247,93.127,18,151.201,18c58.074,0,105.321,47.247,105.321,105.32c0,52.631-38.805,96.369-89.306,104.105h-0.984    l11.244-4.917c0.234-0.103,0.464-0.215,0.688-0.337c15.112-8.207,21.179-26.807,13.811-42.345c-1.061-2.238-2.379-4.324-3.9-6.238    c2.709-5.479,4.239-11.641,4.239-18.155c0-19.577-13.76-35.992-32.113-40.108V69.92c8.286,3.516,14.113,11.734,14.113,21.288    c0,4.971,4.029,9,9,9c4.971,0,9-4.029,9-9c0-19.577-13.76-35.992-32.113-40.108v-8.47c0-4.971-4.029-9-9-9s-9,4.029-9,9v8.47    c-18.353,4.117-32.113,20.531-32.113,40.108c0,19.577,13.76,35.991,32.113,40.108v36.346l-7.728,3.694    c-3.951-4.149-6.385-9.756-6.385-15.923c0-4.971-4.029-9-9-9s-9,4.029-9,9c0,8.91,2.859,17.161,7.694,23.902l-30.584,14.621    l-14.062-0.012C56.207,175.249,45.881,150.469,45.881,123.321z M174.315,155.432c-0.001,2.655-0.456,5.204-1.283,7.579    c-0.18-0.061-0.357-0.129-0.538-0.186c-3.997-1.267-8.176-1.718-12.292-1.398v-27.283    C168.488,137.66,174.315,145.878,174.315,155.432z M142.201,69.92v42.576c-8.286-3.516-14.113-11.734-14.113-21.288    S133.915,73.436,142.201,69.92z M275.397,214.572l-10.432,10.12c-12.164,11.8-25.215,22.931-38.791,33.083    c-5.791,4.331-11.941,8.205-18.278,11.514c-24.687,12.89-52.315,17.668-79.896,13.823L23.665,268.56v-20.973    c0-9.001,3.298-17.66,9.287-24.381c6.385-7.167,15.55-11.275,25.149-11.275c0.009,0,0.019,0,0.028,0l31.098,0.027    c0.002,0,0.005,0,0.008,0c1.343,0,2.669-0.301,3.881-0.88l61.967-29.622c0.185-0.088,0.366-0.183,0.544-0.284    c3.519-1.986,7.575-2.408,11.428-1.188c3.851,1.221,6.925,3.904,8.656,7.554c3.226,6.802,0.657,14.925-5.841,18.65l-50.282,21.992    c-3.903,1.707-6.075,5.917-5.203,10.088c0.872,4.171,4.549,7.158,8.81,7.158h59.726c19.079,0,37.013-7.423,50.51-20.903    l26.664-25.758c4.289-4.142,11.207-4.083,15.422,0.133c2.1,2.101,3.244,4.893,3.222,7.863    C278.716,209.729,277.529,212.504,275.397,214.572z" fill="#2b2a2b"/>
	</g>
</g>
<g>
</g>
<g>
</g>
<g>
</g>
<g>
</g>
<g>
</g>
<g>
</g>
<g>
</g>
<g>
</g>
<g>
</g>
<g>
</g>
<g>
</g>
<g>
</g>
<g>
</g>
<g>
</g>
<g>
</g>
</svg>
